<svg xmlns="http://www.w3.org/2000/svg" width="23.841" height="32.606" viewBox="0 0 23.841 32.606"><defs><style>.a{fill:#ffacb5;}</style></defs><g transform="translate(-68.817)"><g transform="translate(68.817)"><path class="a" d="M80.738,0A12.043,12.043,0,0,0,68.817,12.135c0,3.743,1.893,8.286,5.626,13.5a59.5,59.5,0,0,0,5.538,6.655,1.066,1.066,0,0,0,1.5.017,53.7,53.7,0,0,0,5.55-6.487c3.737-5.139,5.631-9.744,5.631-13.687A12.043,12.043,0,0,0,80.738,0Zm0,17.374a5.828,5.828,0,1,1,5.828-5.828A5.834,5.834,0,0,1,80.738,17.374Z" transform="translate(-68.817)"/></g></g></svg>