<svg xmlns="http://www.w3.org/2000/svg" width="32.083" height="22.559" viewBox="0 0 32.083 22.559"><defs><style>.a{fill:#ffacb5;}</style></defs><g transform="translate(0 -76)"><g transform="translate(22.071 77.612)"><g transform="translate(0 0)"><path class="a" d="M361.941,101.721l-9.73,9.668,9.73,9.668a2.787,2.787,0,0,0,.283-1.208V102.929A2.787,2.787,0,0,0,361.941,101.721Z" transform="translate(-352.211 -101.721)"/></g></g><g transform="translate(1.612 76)"><g transform="translate(0 0)"><path class="a" d="M53.373,76H26.929a2.787,2.787,0,0,0-1.208.283L38.157,88.656a2.822,2.822,0,0,0,3.987,0L54.581,76.283A2.787,2.787,0,0,0,53.373,76Z" transform="translate(-25.721 -76)"/></g></g><g transform="translate(0 77.612)"><g transform="translate(0 0)"><path class="a" d="M.283,101.721A2.787,2.787,0,0,0,0,102.929v16.919a2.787,2.787,0,0,0,.283,1.208l9.73-9.668Z" transform="translate(0 -101.721)"/></g></g><g transform="translate(1.612 88.608)"><g transform="translate(0 0)"><path class="a" d="M44.851,277.211l-1.377,1.377a4.7,4.7,0,0,1-6.646,0l-1.377-1.377-9.73,9.668a2.787,2.787,0,0,0,1.208.283H53.373a2.787,2.787,0,0,0,1.208-.283Z" transform="translate(-25.721 -277.211)"/></g></g></g></svg>